<?xml version="1.0" encoding="UTF-8" standalone="no"?>
<svg
   xmlns:dc="http://purl.org/dc/elements/1.1/"
   xmlns:cc="http://creativecommons.org/ns#"
   xmlns:rdf="http://www.w3.org/1999/02/22-rdf-syntax-ns#"
   xmlns:svg="http://www.w3.org/2000/svg"
   xmlns="http://www.w3.org/2000/svg"
   xmlns:sodipodi="http://sodipodi.sourceforge.net/DTD/sodipodi-0.dtd"
   xmlns:inkscape="http://www.inkscape.org/namespaces/inkscape"
   inkscape:export-ydpi="98.804001"
   inkscape:export-xdpi="98.804001"
   inkscape:export-filename="F:\GameDev\MiniDevJam\Memory\Art\heart-tile.png"
   sodipodi:docname="heart.svg"
   inkscape:version="1.0 (4035a4fb49, 2020-05-01)"
   id="svg8"
   version="1.1"
   viewBox="0 0 210 297"
   height="297mm"
   width="210mm">
  <defs
     id="defs2" />
  <sodipodi:namedview
     inkscape:window-maximized="1"
     inkscape:window-y="-6"
     inkscape:window-x="1911"
     inkscape:window-height="1001"
     inkscape:window-width="1920"
     showgrid="false"
     inkscape:document-rotation="0"
     inkscape:current-layer="layer1"
     inkscape:document-units="mm"
     inkscape:cy="590.04604"
     inkscape:cx="502.99177"
     inkscape:zoom="0.7"
     inkscape:pageshadow="2"
     inkscape:pageopacity="0.0"
     borderopacity="1.0"
     bordercolor="#666666"
     pagecolor="#ffffff"
     id="base" />
  <metadata
     id="metadata5">
    <rdf:RDF>
      <cc:Work
         rdf:about="">
        <dc:format>image/svg+xml</dc:format>
        <dc:type
           rdf:resource="http://purl.org/dc/dcmitype/StillImage" />
        <dc:title></dc:title>
      </cc:Work>
    </rdf:RDF>
  </metadata>
  <g
     id="layer1"
     inkscape:groupmode="layer"
     inkscape:label="Layer 1">
    <path
       sodipodi:nodetypes="ccccccccccccc"
       d="m 112.69489,43.975182 c -16.098105,-2.8e-5 -29.14825,13.049989 -29.148381,29.148092 -6e-6,3.485893 0.474555,5.944883 1.380487,7.660398 -0.114462,-0.0028 0.114922,0.0028 0,0 l 0.588885,0.931642 c 0.344543,0.458796 0.731178,0.848991 1.161381,1.175469 L 133.67565,130.4588 182.96661,80.012208 c -0.17512,-0.01525 0.17361,0.01491 0,0 1.00422,-1.658787 1.55819,-3.895017 1.55819,-6.888934 -1.4e-4,-16.098103 -13.05028,-29.148119 -29.14839,-29.148092 -8.09555,-5e-6 -15.82646,3.366811 -21.34076,9.29392 -5.51429,-5.927109 -13.2452,-9.293924 -21.34076,-9.29392 z"
       style="fill:#ff87ff;fill-opacity:1;stroke:#9ec6db;stroke-width:6.05059;stroke-linecap:round;stroke-linejoin:round;stroke-miterlimit:4;stroke-dasharray:none;stroke-opacity:1"
       id="path855-3" />
    <path
       id="path855-3-4"
       style="fill:#ff87ff;fill-opacity:1;stroke:#9ec6db;stroke-width:6.0506;stroke-linecap:round;stroke-linejoin:round;stroke-miterlimit:4;stroke-dasharray:none;stroke-opacity:1"
       d="m 51.891088,186.61004 c -16.098109,-2e-5 -29.148254,13.04999 -29.148385,29.14809 -6e-6,3.4859 0.474555,5.94489 1.380487,7.6604 -0.114462,-0.003 0.114922,0.003 0,0 l 0.588885,0.93165 c 0.344543,0.45879 0.731178,0.84899 1.161381,1.17546 l 46.998392,47.56802 49.290962,-50.44659 c -0.17512,-0.0152 0.17361,0.0149 0,0 1.00422,-1.65879 1.55819,-3.89502 1.55819,-6.88894 -1.4e-4,-16.0981 -13.05028,-29.14811 -29.148392,-29.14809 -8.095549,0 -15.82646,3.36681 -21.34076,9.29392 -5.51429,-5.92711 -13.245201,-9.29392 -21.34076,-9.29392 z"
       sodipodi:nodetypes="ccccccccccccc" />
  </g>
</svg>
