<?xml version="1.0" encoding="UTF-8" standalone="no"?>
<svg
   xmlns:dc="http://purl.org/dc/elements/1.1/"
   xmlns:cc="http://creativecommons.org/ns#"
   xmlns:rdf="http://www.w3.org/1999/02/22-rdf-syntax-ns#"
   xmlns:svg="http://www.w3.org/2000/svg"
   xmlns="http://www.w3.org/2000/svg"
   xmlns:sodipodi="http://sodipodi.sourceforge.net/DTD/sodipodi-0.dtd"
   xmlns:inkscape="http://www.inkscape.org/namespaces/inkscape"
   sodipodi:docname="hidden.svg"
   inkscape:version="1.0 (4035a4fb49, 2020-05-01)"
   id="svg8"
   version="1.1"
   viewBox="0 0 210 297"
   height="297mm"
   width="210mm">
  <defs
     id="defs2" />
  <sodipodi:namedview
     inkscape:window-maximized="1"
     inkscape:window-y="-9"
     inkscape:window-x="-9"
     inkscape:window-height="1051"
     inkscape:window-width="1920"
     showgrid="true"
     inkscape:document-rotation="0"
     inkscape:current-layer="g863"
     inkscape:document-units="mm"
     inkscape:cy="452.92418"
     inkscape:cx="121.79853"
     inkscape:zoom="0.49497475"
     inkscape:pageshadow="2"
     inkscape:pageopacity="0.0"
     borderopacity="1.0"
     bordercolor="#666666"
     pagecolor="#ffffff"
     id="base" />
  <metadata
     id="metadata5">
    <rdf:RDF>
      <cc:Work
         rdf:about="">
        <dc:format>image/svg+xml</dc:format>
        <dc:type
           rdf:resource="http://purl.org/dc/dcmitype/StillImage" />
        <dc:title></dc:title>
      </cc:Work>
    </rdf:RDF>
  </metadata>
  <g
     id="layer1"
     inkscape:groupmode="layer"
     inkscape:label="Layer 1">
    <g
       transform="translate(2.6458338,-6.0476186)"
       id="g863">
      <rect
         inkscape:export-ydpi="98.804016"
         inkscape:export-xdpi="98.804016"
         rx="3.0238094"
         ry="9.921875"
         y="70.114578"
         x="61.704617"
         height="69.736603"
         width="72.382446"
         id="rect895"
         style="fill:#7bc7de;fill-opacity:1;stroke:none;stroke-width:4.37444" />
      <path
         inkscape:export-ydpi="98.804016"
         inkscape:export-xdpi="98.804016"
         sodipodi:nodetypes="cssscsssscccscccsscssscscsccs"
         id="path867"
         d="m 65.492743,68.596949 c -0.7276,0.20352 -1.41187,0.37528 -1.52059,0.3817 -0.44382,0.0262 -2.38774,2.02573 -2.84965,2.93114 -1.04297,2.04441 -1.07836,3.28639 -0.99855,35.048261 l 0.0771,30.69167 0.6095,1.32291 c 1.21473,2.63656 2.86301,3.72648 6.2192,4.11241 2.84988,0.32771 58.369817,0.32771 61.219697,0 3.35619,-0.38593 5.00447,-1.47585 6.2192,-4.11241 l 0.60949,-1.32291 0.0771,-30.69167 c 0.0537,-21.388901 -0.0108,-31.204741 -0.21299,-32.384381 -0.50227,-2.93067 -1.90438,-4.84307 -4.23075,-5.77052 -1.11763,-0.44557 -3.08739,-0.47736 -32.54276,-0.52525 -26.166617,-0.0426 -31.571967,0.0102 -32.676047,0.31905 z m 64.562197,4.09755 c 1.53908,1.43815 1.45135,-0.5658 1.45135,33.152951 V 136.91 l -0.60059,0.89903 c -1.30799,1.95794 1.13007,1.82424 -33.26608,1.82424 -34.396147,0 -31.958087,0.1337 -33.266077,-1.82424 L 63.772953,136.91 v -31.06255 c 0,-26.162141 0.0586,-31.175281 0.37174,-31.777031 0.40908,-0.78625 1.39076,-1.7557 2.00951,-1.98448 0.21828,-0.0807 14.52598,-0.12563 31.794867,-0.0998 l 31.398,0.0469 z"
         style="fill:#00a1ff;stroke-width:0.264583;fill-opacity:1" />
      <text
         inkscape:export-ydpi="98.804016"
         inkscape:export-xdpi="98.804016"
         id="text885"
         y="131.47246"
         x="81.736305"
         style="font-style:normal;font-variant:normal;font-weight:normal;font-stretch:normal;font-size:71.6165px;line-height:1.25;font-family:Lato;-inkscape-font-specification:Lato;fill:#00a1ff;fill-opacity:1;stroke:none;stroke-width:1.79042;"
         xml:space="preserve"><tspan
           style="font-style:normal;font-variant:normal;font-weight:normal;font-stretch:normal;font-family:Lato;-inkscape-font-specification:Lato;stroke-width:1.79042;fill:#00a1ff;fill-opacity:1;"
           y="131.47246"
           x="81.736305"
           id="tspan883"
           sodipodi:role="line">?</tspan></text>
    </g>
  </g>
</svg>
